<?xml version="1.0" encoding="UTF-8"?>
<!DOCTYPE svg PUBLIC "-//W3C//DTD SVG 1.1//EN" "http://www.w3.org/Graphics/SVG/1.1/DTD/svg11.dtd">
<!-- Creator: CorelDRAW 2021 (64-Bit) -->
<svg xmlns="http://www.w3.org/2000/svg" xml:space="preserve" width="1563px" height="579px" version="1.1" style="shape-rendering:geometricPrecision; text-rendering:geometricPrecision; image-rendering:optimizeQuality; fill-rule:evenodd; clip-rule:evenodd"
viewBox="0 0 1562.87 578.94"
 xmlns:xlink="http://www.w3.org/1999/xlink"
 xmlns:xodm="http://www.corel.com/coreldraw/odm/2003">
 <defs>
  <style type="text/css">
   <![CDATA[
    .fil0 {fill:white;fill-rule:nonzero}
   ]]>
  </style>
 </defs>
 <g id="Layer_x0020_1">
  <metadata id="CorelCorpID_0Corel-Layer"/>
  <g id="_1657807832912">
   <g>
    <path class="fil0" d="M0.11 454.14l156.84 -406.96c35.36,0 70.71,0 106.07,0l156.84 406.95c-196.49,-55.84 -186.79,-213.79 -186.79,-213.79l38.73 0 -61.81 -80.11 -61.81 80.11 37.54 0c0,0 8.99,169.55 -185.61,213.8z"/>
    <path class="fil0" d="M458.35 47.18l299.17 0c30.54,0 55.84,12.05 75.99,36.16 15.82,18.67 23.74,39.83 23.74,63.57l0 34.49c-0.38,25.86 -9.57,48.49 -27.52,67.89 18.31,21.63 27.52,45.18 27.52,70.66l0 35.05c0,30.54 -12.06,55.85 -36.16,75.99 -18.68,15.46 -39.83,23.18 -63.57,23.18l-304.6 0 0 -250.69 304.6 0 0 -62.46 -299.17 0 0 -93.84zm93.83 313.16l205.34 0 0 -62.47 -205.34 0 0 62.47z"/>
    <path class="fil0" d="M1202.03 328.08l99.27 0 0 26.37c0,30.91 -12.1,56.17 -36.16,75.99 -18.7,15.41 -39.74,23.18 -63.11,23.18l-57.47 0 0 47.18 -32.4 0 0 -47.18 -25.5 0 0 47.18 -32.4 0 0 -47.18 -57.56 0c-30.92,0 -56.22,-12.05 -75.99,-36.06 -15.46,-18.77 -23.19,-39.74 -23.19,-63.11l0 -207.54c0,-30.55 11.87,-55.85 35.61,-75.99 18.67,-15.83 39.83,-23.74 63.57,-23.74l57.56 0 0 -47.18 32.4 0 0 47.18 25.5 0 0 -47.18 32.4 0 0 47.18 57.47 0c30.64,0 55.99,12.02 76.08,36.16 15.51,18.62 23.19,39.84 23.19,63.57l0 25.81 -99.27 0 0 -31.7 -205.33 0 0 218.86 205.33 0 0 -31.8z"/>
    <path class="fil0" d="M20.63 526.02l43.09 0 0 52.92 -14.73 0 0 -11.66 -34.15 0 0 11.66 -14.84 0 0 -32.35 20.63 -20.57zm6.16 14.79l-11.95 11.79 34.15 0 0 -11.79 -22.2 0zm123.88 23.34l0 14.79 -47.55 0 -13.87 -13.83 0 -39.09 14.84 0 0 32.11 5.67 6.02 40.91 0zm86.96 0l0 14.79 -47.55 0 -13.88 -13.83 0 -39.09 14.84 0 0 32.11 5.68 6.02 40.91 0zm181.54 -14.92l13.64 13.6 0 16.11 -63.84 0 0 -52.92 45.86 0 13.76 13.71 -9.42 9.5zm-35.36 -8.42l0 4.33 18.59 0 4.34 -4.33 -22.93 0zm29.45 23.34l-4.35 -4.33 -25.1 0 0 4.33 29.45 0zm111.21 -24.42l0 25.38 -13.76 13.83 -38.61 0 -13.76 -13.83 0 -25.38 13.76 -13.71 38.61 0 13.76 13.71zm-19.91 24.42l5.07 -5.05 0 -13.23 -5.07 -5.06 -26.31 0 -5.07 5.06 0 13.23 5.07 5.05 26.31 0zm111.57 -38.13l0 39.09 -13.76 13.83 -38.62 0 -13.75 -13.83 0 -39.09 14.84 0 0 33.08 5.07 5.05 26.31 0 5.07 -5.05 0 -33.08 14.84 0zm86.95 14.79l-23.29 0 0 38.13 -14.84 0 0 -38.13 -23.29 0 0 -14.79 61.42 0 0 14.79zm85.87 -14.79l61.42 0 0 14.79 -46.58 0 0 11.43 11.95 11.91 34.63 0 0 14.79 -40.78 0 -20.64 -20.56 0 -32.36zm148.38 27.54l-6.04 6.02 6.04 6.01 0 13.35 -14.84 0 0 -7.21 -4.47 -4.45 -27.27 0 0 11.66 -14.85 0 0 -52.92 47.55 0 13.88 13.71 0 13.83zm-46.58 -0.96l26.67 0 5.07 -5.17 0 -1.56 -5.07 -5.06 -26.67 0 0 11.79zm138.36 -26.58l0 17.92 -16.05 16 -9.66 0 0 19 -14.84 0 0 -19 -9.65 0 -16.05 -16 0 -17.92 14.84 0 0 11.79 7.48 7.33 21.6 0 7.49 -7.33 0 -11.79 14.84 0zm86.83 13.71l0 13.83 0 0 -13.76 13.72 -32.82 0 0 11.66 -14.72 0 0 -52.92 47.54 0 13.76 13.71zm-19.91 12.87l5.19 -5.17 0 -1.56 -5.19 -5.06 -26.67 0 0 11.79 26.67 0zm106.87 -11.79l-23.3 0 0 38.13 -14.84 0 0 -38.13 -23.29 0 0 -14.79 61.43 0 0 14.79zm91.66 -1.08l0 25.38 -13.76 13.83 -38.62 0 -13.76 -13.83 0 -25.38 13.76 -13.71 38.62 0 13.76 13.71zm-19.92 24.42l5.07 -5.05 0 -13.23 -5.07 -5.06 -26.3 0 -5.07 5.06 0 13.23 5.07 5.05 26.3 0zm-928.67 -41.62l-1.14 -5.54c-10.49,0.18 -16.31,4.84 -16.31,16.44l0 11.86 14.28 0 0 -14.06 -5.47 0c-0.44,-5.01 2.56,-8.09 8.64,-8.7z"/>
   </g>
   <path class="fil0" d="M1220.58 209.43c-11.72,0 -18.55,7.06 -18.55,19.12l0 43.7c0,12.06 6.83,19.12 18.55,19.12 11.83,0 18.77,-7.06 18.77,-19.12l0 -9.56 -11.6 -0.57 0 8.88c0,6.37 -2.39,9.22 -6.83,9.22 -4.44,0 -6.83,-2.85 -6.83,-8.08l0 -43.47c0,-5.24 2.39,-8.08 6.83,-8.08 4.44,0 6.83,2.84 6.83,9.22l0 6.48 11.6 -0.57 0 -7.17c0,-12.06 -6.94,-19.12 -18.77,-19.12zm47.45 0c-12.06,0 -19.46,7.63 -19.46,20.15l0 41.65c0,12.51 7.4,20.14 19.46,20.14 12.06,0 19.46,-7.63 19.46,-20.14l0 -41.65c0,-12.52 -7.4,-20.15 -19.46,-20.15zm0 11.16c4.78,0 7.4,3.18 7.4,9.1l0 41.42c0,5.92 -2.62,9.11 -7.4,9.11 -4.78,0 -7.4,-3.19 -7.4,-9.11l0 -41.42c0,-5.92 2.62,-9.1 7.4,-9.1zm70.44 -10.02l-11.38 0 0 47.45 -0.23 0 -14.22 -47.45 -13.43 0 0 79.66 11.38 0 0 -52.8 0.23 0 15.82 52.8 11.83 0 0 -79.66zm30.27 -1.14c-11.72,0 -18.55,7.06 -18.55,19.12l0 43.7c0,12.06 6.83,19.12 18.55,19.12 11.83,0 18.77,-7.06 18.77,-19.12l0 -9.56 -11.6 -0.57 0 8.88c0,6.37 -2.39,9.22 -6.83,9.22 -4.44,0 -6.83,-2.85 -6.83,-8.08l0 -43.47c0,-5.24 2.39,-8.08 6.83,-8.08 4.44,0 6.83,2.84 6.83,9.22l0 6.48 11.6 -0.57 0 -7.17c0,-12.06 -6.94,-19.12 -18.77,-19.12zm41.08 1.14l-12.06 0 0 79.66 32.2 0 0 -11.38 -20.14 0 0 -68.28zm52.68 0l-15.36 0 -13.77 79.66 12.07 0 2.61 -18.09 13.32 0 2.62 18.09 12.28 0 -13.77 -79.66zm-7.62 17.07l4.89 33.57 -10.12 0 4.89 -33.57 0.34 0zm65.43 -17.07l-12.06 0 -8.87 60.77 -0.23 0 -8.99 -60.77 -12.29 0 13.43 79.66 15.59 0 13.42 -79.66zm42.56 0l-33.91 0 0 79.66 33.91 0 0 -11.15 -21.84 0 0 -23.67 17.63 0 0 -11.15 -17.63 0 0 -22.54 21.84 0 0 -11.15z"/>
   <path class="fil0" d="M1454.2 328.08c-8.05,0 -12.86,4.73 -12.86,12.86l0 3.79 8.05 0.4 0 -2.77c0,-4.65 1.58,-6.55 4.65,-6.55 3.08,0 4.66,1.9 4.66,5.53l0 1.1c0,4.5 -1.1,8.37 -4.97,14.6l-12.39 19.97 0 7.1 25.72 0 0 -7.89 -16.17 0 9.31 -14.91c5.29,-8.53 6.86,-13.18 6.86,-18.55l0 -2.05c0,-7.97 -4.81,-12.63 -12.86,-12.63zm32.36 0c-8.37,0 -13.5,5.29 -13.5,13.97l0 28.88c0,8.69 5.13,13.97 13.5,13.97 8.36,0 13.49,-5.28 13.49,-13.97l0 -28.88c0,-8.68 -5.13,-13.97 -13.49,-13.97zm0 7.73c3.31,0 5.13,2.21 5.13,6.32l0 28.72c0,4.11 -1.82,6.32 -5.13,6.32 -3.32,0 -5.13,-2.21 -5.13,-6.32l0 -28.72c0,-4.11 1.81,-6.32 5.13,-6.32zm31.96 -7.73c-8.05,0 -12.86,4.73 -12.86,12.86l0 3.79 8.05 0.4 0 -2.77c0,-4.65 1.58,-6.55 4.65,-6.55 3.08,0 4.66,1.9 4.66,5.53l0 1.1c0,4.5 -1.11,8.37 -4.97,14.6l-12.39 19.97 0 7.1 25.72 0 0 -7.89 -16.17 0 9.31 -14.91c5.29,-8.53 6.86,-13.18 6.86,-18.55l0 -2.05c0,-7.97 -4.81,-12.63 -12.86,-12.63zm30.7 0c-8.29,0 -13.1,4.89 -13.1,13.26l0 3.39 8.05 0.4 0 -2.77c0,-4.49 1.58,-6.55 4.81,-6.55 3.24,0 4.98,2.21 4.98,6.16l0 3c0,4.66 -1.66,6.71 -5.53,6.71l-3.47 0 0 7.73 3.47 0c4.26,0 6.08,2.21 6.08,7.1l0 4.26c0,4.11 -1.74,6.4 -5.29,6.4 -3.47,0 -5.13,-2.05 -5.13,-6.55l0 -2.76 -8.05 0.39 0 3.39c0,8.37 4.89,13.26 13.42,13.26 8.52,0 13.41,-5.05 13.41,-13.57l0 -4.18c0,-6.08 -2.21,-10.03 -6.63,-11.84l0 -0.16c4.11,-1.66 6.08,-5.13 6.08,-10.34l0 -3.16c0,-8.52 -4.81,-13.57 -13.1,-13.57z"/>
  </g>
 </g>
</svg>
